<?xml version="1.0" encoding="UTF-8"?>
<svg xmlns="http://www.w3.org/2000/svg" xmlns:xlink="http://www.w3.org/1999/xlink" width="1024pt" height="1024pt" viewBox="0 0 1024 1024" version="1.1">
<g id="surface1">
<path style=" stroke:none;fill-rule:nonzero;fill:rgb(0%,0%,0%);fill-opacity:1;" d="M 499 155 C 501.691406 157.152344 504.308594 159.335938 506.851562 161.664062 C 508.917969 163.261719 508.917969 163.261719 511.351562 162.703125 C 513.898438 162.027344 516.152344 161.1875 518.554688 160.109375 C 519.410156 159.730469 520.261719 159.355469 521.140625 158.964844 C 522.496094 158.363281 522.496094 158.363281 523.875 157.75 C 552.574219 145.277344 584.0625 136.089844 614.503906 147.527344 C 629.507812 153.847656 638.605469 162.980469 645 178 C 650.273438 193.40625 648.671875 211.429688 647.488281 227.421875 C 647.394531 228.660156 647.304688 229.898438 647.210938 231.175781 C 647.140625 232.105469 647.070312 233.039062 647 234 C 647.796875 233.992188 648.589844 233.988281 649.410156 233.980469 C 656.972656 233.917969 664.53125 233.875 672.089844 233.84375 C 675.976562 233.828125 679.859375 233.808594 683.746094 233.773438 C 687.507812 233.742188 691.265625 233.722656 695.027344 233.714844 C 696.449219 233.710938 697.875 233.699219 699.296875 233.683594 C 717.882812 233.476562 734.207031 237.449219 749 249 C 749.6875 249.511719 750.375 250.019531 751.082031 250.546875 C 761.175781 258.589844 767.816406 270.703125 771.941406 282.75 C 772.464844 283.863281 772.464844 283.863281 773 285 C 776.007812 286.003906 778.335938 286.222656 781.488281 286.394531 C 800.402344 287.539062 820.710938 288.957031 834.324219 303.953125 C 844.34375 316.191406 846.457031 330.628906 845 346 C 840.886719 378.6875 821.285156 407.851562 800 432 C 799.328125 432.769531 798.660156 433.539062 797.96875 434.332031 C 796.839844 435.628906 795.707031 436.921875 794.570312 438.210938 C 792.019531 441.117188 789.511719 444.058594 787 447 C 792.953125 452.484375 798.902344 457.960938 805.015625 463.265625 C 808.183594 466.03125 811.300781 468.855469 814.417969 471.675781 C 816.140625 473.226562 817.871094 474.765625 819.613281 476.292969 C 820.460938 477.042969 821.3125 477.789062 822.1875 478.5625 C 822.945312 479.222656 823.699219 479.886719 824.480469 480.566406 C 842.980469 498.433594 860.421875 522.71875 861.464844 549.152344 C 861.660156 562.722656 858.613281 573.34375 850 584 C 849.5 584.675781 849 585.347656 848.484375 586.042969 C 832 606.898438 801.824219 614.371094 777 619 C 776.011719 619 775.019531 619 774 619 C 774.007812 619.792969 774.011719 620.585938 774.019531 621.40625 C 774.082031 628.949219 774.125 636.492188 774.15625 644.039062 C 774.171875 647.917969 774.191406 651.792969 774.226562 655.671875 C 774.257812 659.425781 774.277344 663.179688 774.285156 666.933594 C 774.289062 668.351562 774.300781 669.773438 774.316406 671.191406 C 774.546875 691.964844 769.886719 709.929688 755.683594 725.546875 C 741.214844 739.371094 723.441406 745.207031 703.691406 745.097656 C 702.726562 745.097656 701.757812 745.09375 700.761719 745.09375 C 697.695312 745.085938 694.628906 745.074219 691.5625 745.0625 C 689.476562 745.058594 687.386719 745.054688 685.296875 745.046875 C 680.199219 745.039062 675.097656 745.019531 670 745 C 669.582031 746.667969 669.167969 748.332031 668.75 750 C 668.386719 751.449219 668.023438 752.902344 667.660156 754.351562 C 666.804688 757.769531 665.953125 761.1875 665.109375 764.609375 C 658.019531 793.375 648.269531 824.863281 621.574219 841.589844 C 612.835938 846.378906 603.964844 850.046875 594 851 C 593.199219 851.082031 592.402344 851.164062 591.578125 851.25 C 554.003906 853.117188 513.902344 828.230469 485.160156 806.769531 C 484.5625 806.324219 483.964844 805.875 483.347656 805.417969 C 482.820312 805.023438 482.296875 804.628906 481.753906 804.222656 C 481.175781 803.820312 480.597656 803.414062 480 803 C 479.207031 802.414062 478.410156 801.824219 477.59375 801.21875 C 475.089844 799.703125 475.089844 799.703125 472.621094 800.632812 C 471.804688 801.101562 470.988281 801.570312 470.148438 802.050781 C 469.226562 802.5625 468.300781 803.070312 467.347656 803.597656 C 466.367188 804.164062 465.386719 804.730469 464.375 805.3125 C 462.292969 806.453125 460.210938 807.589844 458.125 808.71875 C 457.089844 809.28125 456.050781 809.84375 454.984375 810.425781 C 430.917969 823.121094 398.257812 835.941406 370.875 828.375 C 360.894531 824.757812 355.636719 819.492188 351 810 C 341.589844 789.738281 347.125 765.324219 354 745 C 353.441406 745.007812 352.882812 745.011719 352.308594 745.019531 C 346.4375 745.085938 340.5625 745.132812 334.6875 745.164062 C 332.503906 745.179688 330.320312 745.199219 328.136719 745.226562 C 298.359375 745.574219 298.359375 745.574219 284.875 738.5 C 284.210938 738.160156 283.550781 737.816406 282.867188 737.464844 C 267.8125 729.304688 257.335938 715.503906 252.128906 699.292969 C 250.070312 691.660156 249.632812 684.628906 249.8125 676.75 C 249.824219 675.613281 249.839844 674.472656 249.851562 673.300781 C 249.886719 670.535156 249.9375 667.765625 250 665 C 249.382812 664.964844 248.765625 664.929688 248.128906 664.894531 C 221.753906 663.324219 193.757812 659.464844 174.742188 639.109375 C 162.417969 624.1875 161.421875 606.582031 163 588 C 164.890625 573.785156 169.535156 560.199219 175 547 C 175.324219 546.210938 175.648438 545.417969 175.984375 544.605469 C 183.363281 526.863281 193.082031 510.417969 203 494 C 202.421875 493.742188 201.839844 493.484375 201.242188 493.222656 C 182.628906 483.09375 168.628906 459.09375 161 440 C 160.621094 439.050781 160.238281 438.101562 159.847656 437.121094 C 155.34375 423.527344 157.089844 407.917969 163.355469 395.261719 C 174.660156 375.289062 196.894531 362.527344 218.5 356.277344 C 221.199219 355.542969 223.90625 354.855469 226.625 354.1875 C 227.460938 353.980469 228.292969 353.773438 229.152344 353.558594 C 234.042969 352.429688 238.824219 351.796875 243.832031 351.4375 C 244.992188 351.355469 246.148438 351.269531 247.34375 351.183594 C 248.21875 351.125 249.097656 351.0625 250 351 C 249.988281 349.945312 249.988281 349.945312 249.972656 348.867188 C 249.890625 342.164062 249.832031 335.457031 249.792969 328.75 C 249.773438 325.304688 249.746094 321.859375 249.699219 318.414062 C 249.386719 294.324219 250.121094 273.585938 267.757812 255.207031 C 268.496094 254.480469 269.238281 253.75 270 253 C 270.636719 252.363281 271.273438 251.730469 271.929688 251.074219 C 284.25 239.546875 300.042969 233.777344 316.804688 233.902344 C 317.890625 233.90625 317.890625 233.90625 319 233.90625 C 321.289062 233.914062 323.582031 233.925781 325.875 233.9375 C 327.4375 233.941406 329 233.945312 330.5625 233.953125 C 334.375 233.960938 338.1875 233.980469 342 234 C 342.191406 232.660156 342.191406 232.660156 342.386719 231.289062 C 342.929688 228.382812 343.632812 226.054688 344.785156 223.347656 C 345.148438 222.496094 345.507812 221.644531 345.878906 220.769531 C 346.269531 219.875 346.660156 218.984375 347.0625 218.0625 C 347.46875 217.128906 347.875 216.199219 348.292969 215.238281 C 362.808594 182.300781 384.785156 151.667969 419.089844 137.746094 C 446.65625 128.339844 476.121094 139.15625 499 155 Z M 386.546875 177.664062 C 373.359375 193.226562 359.933594 213.714844 356 234 C 364.484375 234.164062 372.96875 234.285156 381.453125 234.363281 C 385.394531 234.398438 389.332031 234.449219 393.273438 234.527344 C 397.078125 234.605469 400.886719 234.644531 404.691406 234.664062 C 406.140625 234.675781 407.589844 234.703125 409.035156 234.738281 C 417.027344 235.136719 417.027344 235.136719 424.371094 232.535156 C 426.144531 230.789062 427.578125 229.039062 429 227 C 429.640625 226.28125 430.28125 225.566406 430.941406 224.828125 C 431.441406 224.234375 431.941406 223.640625 432.453125 223.027344 C 435.984375 218.9375 439.789062 215.234375 443.75 211.5625 C 444.453125 210.910156 445.15625 210.257812 445.878906 209.582031 C 460.433594 196.144531 476.460938 184.835938 493 174 C 493.988281 173.339844 494.980469 172.679688 496 172 C 496 171.339844 496 170.679688 496 170 C 481.238281 156.523438 459.117188 146.515625 439.054688 146.789062 C 417.320312 148.289062 400.351562 161.855469 386.546875 177.664062 Z M 522 173 C 523.304688 175.914062 524.632812 177.835938 527.011719 179.953125 C 527.601562 180.484375 528.191406 181.019531 528.796875 181.566406 C 529.421875 182.121094 530.046875 182.675781 530.6875 183.25 C 535.824219 187.925781 540.578125 192.636719 545 198 C 545.804688 198.917969 546.609375 199.832031 547.4375 200.777344 C 565.171875 221.058594 565.171875 221.058594 569.304688 231.203125 C 572.554688 234.574219 573.507812 234.464844 578.054688 234.679688 C 580.613281 234.679688 583.175781 234.644531 585.734375 234.585938 C 587.097656 234.574219 588.457031 234.566406 589.820312 234.558594 C 593.398438 234.539062 596.972656 234.476562 600.550781 234.410156 C 604.203125 234.351562 607.859375 234.324219 611.511719 234.292969 C 618.675781 234.230469 625.835938 234.125 633 234 C 635.867188 225.398438 635.210938 215.472656 635.25 206.5 C 635.269531 205.355469 635.292969 204.207031 635.3125 203.027344 C 635.375 189.277344 631.792969 177.011719 622 167 C 594.042969 144.824219 550.386719 157.882812 522 173 Z M 505.3125 181.160156 C 489.28125 190.367188 474.757812 201.691406 461 214 C 460.074219 214.824219 459.152344 215.648438 458.199219 216.5 C 456.546875 217.984375 454.898438 219.472656 453.253906 220.96875 C 450.445312 223.5 447.578125 225.953125 444.691406 228.394531 C 442.628906 230.261719 442.628906 230.261719 440 234 C 478.28125 234 516.558594 234 556 234 C 552.859375 228.503906 549.757812 223.769531 545.9375 218.8125 C 545.367188 218.070312 544.796875 217.324219 544.207031 216.558594 C 539.90625 211.023438 535.371094 205.808594 530.558594 200.710938 C 528.082031 198.085938 525.695312 195.398438 523.3125 192.6875 C 515.675781 183.089844 515.675781 183.089844 505.3125 181.160156 Z M 276.628906 268.605469 C 267.625 281.84375 265.699219 294.34375 265.734375 309.992188 C 265.730469 311.617188 265.722656 313.246094 265.71875 314.875 C 265.707031 319.332031 265.707031 323.789062 265.710938 328.25 C 265.710938 333.0625 265.699219 337.875 265.6875 342.691406 C 265.671875 352.117188 265.667969 361.542969 265.664062 370.96875 C 265.664062 378.632812 265.660156 386.296875 265.65625 393.960938 C 265.636719 415.699219 265.628906 437.4375 265.628906 459.175781 C 265.628906 460.347656 265.628906 461.519531 265.628906 462.726562 C 265.628906 463.898438 265.628906 465.074219 265.628906 466.28125 C 265.628906 485.285156 265.609375 504.292969 265.582031 523.296875 C 265.554688 542.824219 265.539062 562.347656 265.542969 581.875 C 265.542969 592.832031 265.539062 603.789062 265.515625 614.75 C 265.496094 624.078125 265.492188 633.40625 265.507812 642.738281 C 265.511719 647.496094 265.511719 652.25 265.496094 657.007812 C 265.480469 661.371094 265.484375 665.730469 265.5 670.089844 C 265.503906 671.664062 265.5 673.234375 265.488281 674.804688 C 265.386719 690.25 268.449219 703.527344 279.03125 715.25 C 291.707031 727.375 305.683594 729.304688 322.414062 729.261719 C 324.101562 729.265625 325.789062 729.269531 327.472656 729.273438 C 332.097656 729.28125 336.722656 729.28125 341.34375 729.277344 C 346.335938 729.273438 351.328125 729.28125 356.316406 729.289062 C 366.089844 729.304688 375.863281 729.304688 385.636719 729.300781 C 393.582031 729.300781 401.527344 729.300781 409.472656 729.304688 C 410.605469 729.308594 411.734375 729.308594 412.898438 729.308594 C 415.199219 729.308594 417.496094 729.3125 419.792969 729.3125 C 441.335938 729.324219 462.882812 729.320312 484.425781 729.316406 C 504.132812 729.308594 523.835938 729.320312 543.542969 729.339844 C 563.78125 729.359375 584.019531 729.367188 604.257812 729.363281 C 615.617188 729.363281 626.976562 729.363281 638.335938 729.378906 C 648.007812 729.390625 657.679688 729.390625 667.351562 729.378906 C 672.285156 729.375 677.21875 729.371094 682.148438 729.382812 C 686.667969 729.394531 691.1875 729.390625 695.707031 729.378906 C 697.339844 729.375 698.972656 729.378906 700.601562 729.386719 C 718.066406 729.464844 731.613281 725.929688 744.519531 713.605469 C 753.890625 703.761719 758.125 691.835938 758.125 678.316406 C 758.128906 677.667969 758.128906 677.019531 758.128906 676.347656 C 758.132812 674.175781 758.128906 672 758.128906 669.828125 C 758.128906 668.253906 758.128906 666.675781 758.132812 665.101562 C 758.136719 660.773438 758.132812 656.449219 758.128906 652.121094 C 758.128906 647.457031 758.132812 642.789062 758.132812 638.121094 C 758.140625 628.980469 758.136719 619.84375 758.136719 610.703125 C 758.132812 603.277344 758.132812 595.851562 758.132812 588.425781 C 758.132812 587.371094 758.132812 586.316406 758.132812 585.226562 C 758.132812 583.082031 758.136719 580.9375 758.136719 578.792969 C 758.136719 558.671875 758.136719 538.554688 758.128906 518.433594 C 758.125 501.15625 758.125 483.878906 758.128906 466.601562 C 758.136719 446.550781 758.136719 426.496094 758.132812 406.445312 C 758.132812 404.308594 758.132812 402.171875 758.132812 400.039062 C 758.132812 398.988281 758.132812 397.933594 758.132812 396.851562 C 758.132812 389.429688 758.132812 382.007812 758.136719 374.585938 C 758.140625 365.550781 758.136719 356.515625 758.132812 347.480469 C 758.128906 342.867188 758.128906 338.25 758.132812 333.636719 C 758.136719 329.421875 758.132812 325.203125 758.128906 320.984375 C 758.128906 319.453125 758.128906 317.921875 758.128906 316.390625 C 758.132812 314.320312 758.128906 312.25 758.125 310.179688 C 758.125 309.027344 758.125 307.871094 758.125 306.683594 C 758.183594 304.027344 758.183594 304.027344 757 302 C 731.257812 300.3125 703.347656 313.132812 680.171875 322.734375 C 677.3125 323.875 674.441406 324.886719 671.515625 325.851562 C 667.046875 327.429688 663.609375 328.859375 660 332 C 657.84375 337 658.101562 342.441406 658.09375 347.789062 C 657.789062 354.933594 654.480469 361.921875 651.75 368.4375 C 650.21875 372.101562 649.574219 374.972656 650 379 C 649.339844 379.328125 648.679688 379.660156 648 380 C 648.570312 380.089844 649.144531 380.179688 649.734375 380.273438 C 694.976562 387.523438 694.976562 387.523438 708 405 C 717.261719 420.84375 720 437.734375 715.4375 455.6875 C 714.164062 459.835938 712.679688 463.871094 711.140625 467.929688 C 710.820312 468.78125 710.496094 469.632812 710.167969 470.507812 C 709.527344 472.171875 708.875 473.832031 708.199219 475.480469 C 706.417969 480.015625 705.355469 483.191406 707 488 C 708.675781 490.484375 708.675781 490.484375 710.8125 492.75 C 718.246094 501.582031 720.882812 511.582031 720 523 C 718.191406 533.546875 712.449219 543.148438 703.722656 549.375 C 695.648438 554.195312 686.871094 557.921875 678 561 C 678.265625 562.003906 678.53125 563.007812 678.804688 564.042969 C 688.433594 601.050781 688.433594 601.050781 679.875 616.125 C 674.902344 623.472656 667.761719 629.132812 659 631 C 643.472656 632.4375 629.164062 630.046875 614.726562 624.34375 C 608.390625 621.5 608.390625 621.5 601.765625 621.707031 C 599.78125 623.300781 598.46875 624.917969 597 627 C 596.457031 627.683594 595.910156 628.367188 595.351562 629.070312 C 594.171875 630.558594 593.007812 632.0625 591.863281 633.578125 C 581.144531 647.511719 568.679688 655.699219 553 663 C 553.265625 662.347656 553.53125 661.695312 553.804688 661.023438 C 554.15625 660.148438 554.511719 659.277344 554.875 658.375 C 555.242188 657.464844 555.613281 656.554688 555.992188 655.617188 C 557.089844 652.882812 557.089844 652.882812 558 649.5 C 559.25 646.371094 560.046875 646.421875 563 645 C 573.78125 637.320312 582.558594 627.597656 589 616 C 589 615.339844 589 614.679688 589 614 C 587.1875 612.816406 585.308594 611.734375 583.410156 610.691406 C 582.21875 610.019531 581.03125 609.347656 579.84375 608.671875 C 577.972656 607.625 576.097656 606.582031 574.214844 605.554688 C 566.179688 601.160156 560.5625 596.972656 554.964844 589.523438 C 552.273438 586.066406 549.253906 583.566406 545.6875 581.0625 C 545.054688 580.605469 544.421875 580.148438 543.765625 579.675781 C 538.199219 575.816406 532.527344 573.742188 526 572 C 525.671875 571.671875 525.339844 571.339844 525 571 C 533.164062 564.644531 539.382812 562.988281 549.625 563.125 C 551.949219 563.109375 554.277344 563.089844 556.601562 563.070312 C 557.695312 563.066406 558.789062 563.058594 559.914062 563.054688 C 567.894531 563.113281 567.894531 563.113281 574.8125 559.75 C 575.535156 558.84375 576.257812 557.933594 577 557 C 577.628906 556.242188 578.253906 555.484375 578.902344 554.703125 C 592.140625 537.640625 599.863281 514.429688 601 493 C 601.0625 491.988281 601.128906 490.972656 601.195312 489.929688 C 601.425781 483.679688 601.296875 479.894531 597 475 C 596.257812 474.050781 595.515625 473.101562 594.75 472.125 C 593.882812 471.074219 593.882812 471.074219 593 470 C 589.992188 471.339844 588.015625 472.777344 585.792969 475.195312 C 585.210938 475.824219 584.628906 476.453125 584.027344 477.101562 C 583.117188 478.105469 583.117188 478.105469 582.1875 479.125 C 581.558594 479.808594 580.929688 480.492188 580.28125 481.195312 C 576.710938 485.085938 573.175781 489.011719 569.730469 493.015625 C 565.898438 497.410156 561.933594 501.695312 558 506 C 558.039062 488.261719 558.039062 488.261719 562.917969 483.027344 C 563.605469 482.359375 564.292969 481.6875 565 481 C 565.980469 479.945312 566.957031 478.882812 567.925781 477.816406 C 569.996094 475.542969 572.085938 473.289062 574.195312 471.050781 C 579.191406 466.253906 579.191406 466.253906 581 460 C 579.542969 458.574219 579.542969 458.574219 577.570312 457.335938 C 576.859375 456.855469 576.144531 456.371094 575.410156 455.875 C 574.65625 455.378906 573.902344 454.886719 573.125 454.375 C 572.378906 453.871094 571.632812 453.371094 570.863281 452.851562 C 567.03125 450.257812 567.03125 450.257812 563 448 C 563 444.039062 563 440.078125 563 436 C 564.097656 436.144531 565.195312 436.289062 566.324219 436.4375 C 567.777344 436.625 569.234375 436.8125 570.6875 437 C 571.769531 437.144531 571.769531 437.144531 572.875 437.289062 C 576.609375 437.765625 580.222656 438.121094 584 438 C 582.703125 434.4375 581.160156 431.566406 578.9375 428.5 C 578.019531 427.191406 578.019531 427.191406 577.085938 425.859375 C 575.621094 423.851562 574.101562 421.886719 572.539062 419.953125 C 566.289062 412.03125 564.855469 406.140625 566 396 C 566.140625 394.34375 566.277344 392.6875 566.410156 391.03125 C 566.703125 387.703125 567.003906 384.375 567.367188 381.054688 C 567.476562 380.027344 567.476562 380.027344 567.589844 378.976562 C 568.542969 374.378906 570.65625 372.21875 574.375 369.5 C 577.597656 367.128906 580.125 364.875 583 362 C 578.710938 361.011719 574.421875 360.019531 570 359 C 569.671875 355.371094 569.339844 351.738281 569 348 C 575.71875 347.460938 581.222656 349.035156 587.632812 351.027344 C 588.742188 351.347656 589.855469 351.667969 591 352 C 591.933594 352.332031 592.867188 352.664062 593.828125 353.003906 C 599.039062 352.996094 602.449219 349.898438 606.625 347 C 616.777344 340.214844 627.246094 334.414062 638.070312 328.800781 C 639.21875 328.203125 640.367188 327.601562 641.550781 326.984375 C 643.09375 326.191406 643.09375 326.191406 644.664062 325.382812 C 647.117188 324.214844 647.117188 324.214844 648 322 C 646.292969 315.34375 643.871094 310.613281 638 307 C 624.398438 302.160156 609.578125 305.695312 596.882812 311.6875 C 588.535156 315.84375 580.722656 320.792969 573 326 C 571.515625 326.988281 571.515625 326.988281 570 328 C 569.585938 314.925781 569.585938 314.925781 572.507812 310.949219 C 574.917969 309.324219 577.34375 308.183594 580 307 C 581.203125 306.359375 582.398438 305.710938 583.59375 305.054688 C 599.535156 296.445312 618.035156 289.925781 636.328125 293.683594 C 644.085938 296.03125 649.578125 298.847656 653.71875 305.949219 C 655.738281 309.898438 657.597656 313.789062 659 318 C 664.804688 316.195312 670.375 314.046875 675.953125 311.636719 C 700.980469 300.828125 726.878906 292.429688 754 289 C 755.710938 283.339844 753.597656 280.140625 750.9375 275.136719 C 743.488281 263.074219 732.929688 254.832031 719.363281 250.964844 C 712.207031 249.410156 704.890625 249.714844 697.605469 249.726562 C 695.933594 249.722656 694.261719 249.714844 692.589844 249.710938 C 688.011719 249.695312 683.429688 249.695312 678.851562 249.695312 C 673.90625 249.691406 668.960938 249.679688 664.015625 249.667969 C 653.210938 249.644531 642.402344 249.636719 631.597656 249.632812 C 624.847656 249.628906 618.09375 249.621094 611.34375 249.617188 C 592.640625 249.597656 573.933594 249.578125 555.230469 249.578125 C 554.035156 249.578125 552.839844 249.578125 551.605469 249.574219 C 549.179688 249.574219 546.753906 249.574219 544.332031 249.574219 C 543.128906 249.574219 541.921875 249.574219 540.683594 249.574219 C 539.476562 249.574219 538.273438 249.574219 537.03125 249.574219 C 517.507812 249.570312 497.980469 249.542969 478.457031 249.507812 C 458.394531 249.46875 438.335938 249.449219 418.273438 249.449219 C 407.015625 249.449219 395.757812 249.4375 384.5 249.410156 C 374.914062 249.386719 365.328125 249.378906 355.742188 249.394531 C 350.855469 249.402344 345.96875 249.398438 341.082031 249.378906 C 336.597656 249.355469 332.117188 249.359375 327.636719 249.378906 C 326.023438 249.382812 324.410156 249.378906 322.796875 249.363281 C 304.726562 249.214844 288.558594 254.03125 276.628906 268.605469 Z M 773 301 C 772.976562 318.289062 772.960938 335.578125 772.949219 352.867188 C 772.941406 360.894531 772.9375 368.921875 772.925781 376.949219 C 772.914062 383.945312 772.90625 390.941406 772.90625 397.9375 C 772.90625 401.640625 772.902344 405.347656 772.894531 409.050781 C 772.886719 413.183594 772.886719 417.316406 772.886719 421.449219 C 772.882812 422.683594 772.878906 423.917969 772.875 425.1875 C 772.878906 426.308594 772.878906 427.433594 772.878906 428.589844 C 772.878906 429.566406 772.878906 430.546875 772.875 431.554688 C 772.898438 434.140625 772.898438 434.140625 774 437 C 785.082031 433.332031 792.378906 421.085938 799 412 C 799.476562 411.351562 799.953125 410.703125 800.445312 410.035156 C 811.992188 394.28125 821.722656 378.578125 828 360 C 828.359375 358.964844 828.722656 357.933594 829.09375 356.867188 C 832.480469 345.605469 833.351562 329.765625 828 319 C 822.886719 309.664062 814.742188 305.632812 804.8125 302.6875 C 797.40625 300.679688 790.324219 299.832031 782.6875 299.875 C 781.617188 299.871094 781.617188 299.871094 780.523438 299.863281 C 776.632812 299.800781 776.632812 299.800781 773 301 Z M 634.75 343.4375 C 633.660156 344.070312 632.570312 344.707031 631.449219 345.359375 C 623.703125 349.910156 616.226562 354.664062 609 360 C 611.714844 362.757812 614.40625 365.40625 617.4375 367.8125 C 620.1875 370.089844 622.035156 372.402344 624 375.375 C 625.363281 377.433594 625.363281 377.433594 627 379 C 630.753906 379.671875 630.753906 379.671875 634 379 C 637.46875 372.890625 639.96875 366.582031 642.1875 359.9375 C 642.5625 358.824219 642.5625 358.824219 642.945312 357.6875 C 646.28125 347.550781 646.28125 347.550781 647 337 C 643.222656 337 637.9375 341.578125 634.75 343.4375 Z M 182.125 391.5 C 173.515625 400.5625 170.574219 410.976562 170.796875 423.351562 C 172.566406 446.425781 190.808594 466.867188 207.054688 481.601562 C 209.007812 483.292969 209.007812 483.292969 212 483 C 213.589844 481.019531 213.589844 481.019531 215.0625 478.375 C 222.640625 465.96875 231.574219 454.515625 240.453125 443.023438 C 242.582031 440.234375 244.652344 437.402344 246.710938 434.5625 C 248 433 248 433 250 432 C 250 409.558594 250 387.121094 250 364 C 225.5 364 199.824219 374.714844 182.125 391.5 Z M 592.6875 371.0625 C 591.578125 371.636719 591.578125 371.636719 590.449219 372.222656 C 587.0625 374.679688 584.609375 377.75 582 381 C 585.144531 380.859375 588.292969 380.710938 591.4375 380.5625 C 592.316406 380.523438 593.195312 380.484375 594.101562 380.445312 C 599.769531 380.171875 605.363281 379.683594 611 379 C 607.507812 375.40625 603.992188 372.039062 600 369 C 596.742188 369 595.507812 369.546875 592.6875 371.0625 Z M 640.4375 392.875 C 637.363281 399.558594 640.542969 407.667969 642.3125 414.5 C 644.675781 423.894531 646.273438 433.316406 647.566406 442.914062 C 647.710938 443.921875 647.859375 444.933594 648.007812 445.976562 C 648.128906 446.875 648.246094 447.773438 648.371094 448.699219 C 649.097656 451.359375 649.839844 452.320312 652 454 C 654.675781 455.257812 657.335938 456.429688 660.0625 457.5625 C 669.761719 461.726562 678.867188 466.734375 688 472 C 689.339844 472.765625 690.679688 473.53125 692.019531 474.296875 C 693.003906 474.859375 693.988281 475.421875 695 476 C 703.234375 460.40625 708.21875 441.414062 704.300781 423.867188 C 700.820312 414.261719 694 406.484375 684.84375 401.929688 C 682.605469 401 680.355469 400.167969 678.0625 399.375 C 677.246094 399.082031 676.425781 398.789062 675.582031 398.488281 C 657.625 391.53125 657.625 391.53125 640.4375 392.875 Z M 604.1875 391.746094 C 602.789062 391.832031 601.386719 391.914062 599.984375 391.996094 C 585.160156 391.792969 585.160156 391.792969 572.175781 396.570312 C 571.789062 397.042969 571.398438 397.515625 571 398 C 571.773438 399.003906 572.546875 400.007812 573.34375 401.042969 C 579.765625 409.449219 585.585938 417.910156 591 427 C 593.3125 430.679688 595.652344 434.339844 598 438 C 601.777344 436.742188 602.363281 435.390625 604.546875 432.109375 C 605.222656 431.09375 605.902344 430.082031 606.601562 429.035156 C 607.308594 427.953125 608.019531 426.867188 608.75 425.75 C 609.46875 424.65625 610.1875 423.5625 610.929688 422.4375 C 619.992188 410.457031 619.992188 410.457031 623.738281 396.78125 C 622.96875 393.875 622.453125 392.699219 620 391 C 614.722656 391 609.457031 391.417969 604.1875 391.746094 Z M 629 416 C 628.65625 416.542969 628.316406 417.089844 627.960938 417.648438 C 626.390625 420.140625 624.820312 422.632812 623.25 425.125 C 622.441406 426.410156 622.441406 426.410156 621.617188 427.71875 C 619.328125 431.347656 617.042969 434.960938 614.609375 438.492188 C 612.820312 440.785156 612.820312 440.785156 613 443 C 615.894531 443.816406 618.792969 444.625 621.6875 445.4375 C 622.503906 445.667969 623.320312 445.898438 624.164062 446.132812 C 628.089844 447.230469 631.980469 448.289062 636 449 C 635.6875 441.292969 634.535156 433.871094 633.0625 426.3125 C 632.894531 425.414062 632.722656 424.515625 632.546875 423.59375 C 632.378906 422.753906 632.210938 421.914062 632.035156 421.050781 C 631.882812 420.292969 631.734375 419.539062 631.578125 418.757812 C 631.386719 418.179688 631.195312 417.597656 631 417 C 630.339844 416.671875 629.679688 416.339844 629 416 Z M 585 451 C 585.328125 451.660156 585.660156 452.320312 586 453 C 586.660156 453 587.320312 453 588 453 C 588 452.339844 588 451.679688 588 451 C 587.011719 451 586.019531 451 585 451 Z M 247.792969 454.152344 C 237.480469 465.621094 229.179688 478.96875 221 492 C 227.601562 498.660156 234.539062 504.746094 241.9375 510.5 C 242.503906 510.945312 243.074219 511.390625 243.65625 511.851562 C 246.503906 514.253906 246.503906 514.253906 250 515 C 250 494.539062 250 474.078125 250 453 C 248.84375 452.886719 248.84375 452.886719 247.792969 454.152344 Z M 608 455 C 609.503906 466.78125 611.417969 474.171875 620.945312 481.585938 C 624.636719 484.503906 627.484375 487.8125 630.476562 491.417969 C 630.980469 491.941406 631.480469 492.460938 632 493 C 632.660156 493 633.320312 493 634 493 C 634.328125 493.660156 634.660156 494.320312 635 495 C 638.4375 477.886719 638.4375 477.886719 635 462 C 632.671875 460.941406 632.671875 460.941406 629.914062 460.175781 C 628.902344 459.871094 627.886719 459.5625 626.84375 459.25 C 625.78125 458.9375 624.71875 458.628906 623.625 458.3125 C 622.570312 457.992188 621.515625 457.671875 620.429688 457.34375 C 614.324219 455.523438 614.324219 455.523438 608 455 Z M 775 459 C 773.65625 461.683594 773.878906 463.738281 773.878906 466.746094 C 773.878906 467.96875 773.878906 469.191406 773.875 470.449219 C 773.878906 471.8125 773.882812 473.175781 773.886719 474.539062 C 773.886719 475.964844 773.886719 477.394531 773.886719 478.824219 C 773.886719 482.710938 773.890625 486.597656 773.898438 490.484375 C 773.90625 494.542969 773.90625 498.601562 773.90625 502.660156 C 773.910156 510.347656 773.917969 518.035156 773.929688 525.722656 C 773.9375 534.476562 773.945312 543.226562 773.949219 551.980469 C 773.960938 569.988281 773.976562 587.992188 774 606 C 777.339844 605.386719 780.675781 604.765625 784.011719 604.140625 C 785.414062 603.882812 785.414062 603.882812 786.847656 603.621094 C 808.5 599.554688 828.554688 591.085938 842 573 C 848.746094 562.207031 848.882812 548.484375 846.183594 536.320312 C 845.011719 533.042969 843.625 530.078125 842 527 C 841.671875 526.363281 841.347656 525.722656 841.007812 525.066406 C 836.5 516.335938 831.546875 508.371094 825 501 C 824.203125 500.082031 823.402344 499.164062 822.582031 498.21875 C 812.886719 487.335938 802.117188 477.414062 791 468 C 790.09375 467.203125 789.1875 466.40625 788.253906 465.585938 C 787.285156 464.753906 786.3125 463.921875 785.3125 463.0625 C 784.421875 462.289062 783.53125 461.519531 782.613281 460.722656 C 779.742188 458.832031 778.363281 458.605469 775 459 Z M 650 467 C 649.945312 467.660156 649.890625 468.320312 649.832031 469 C 649.578125 472.019531 649.320312 475.042969 649.0625 478.0625 C 648.976562 479.101562 648.886719 480.140625 648.796875 481.210938 C 648.34375 486.503906 647.785156 491.742188 647 497 C 646.0625 504.769531 646.269531 509.84375 651 516.3125 C 652.304688 517.898438 653.628906 519.472656 655 521 C 663.023438 517.578125 669.859375 509.515625 675.375 502.9375 C 677.113281 500.863281 678.929688 498.875 680.75 496.875 C 683.503906 493.746094 685.371094 490.828125 687 487 C 678.363281 479.984375 661.371094 467 650 467 Z M 614 493 C 613.878906 493.621094 613.761719 494.246094 613.636719 494.886719 C 608.984375 518.726562 603.589844 539.578125 590 560 C 595.921875 561.949219 602.148438 560.675781 608 559 C 617.824219 553.011719 623.085938 545.820312 626.625 535.125 C 626.925781 534.253906 627.222656 533.378906 627.53125 532.480469 C 631.453125 522.421875 631.453125 522.421875 632 512 C 630.53125 509.925781 628.898438 508.140625 627.148438 506.300781 C 623.84375 502.761719 620.917969 498.925781 617.917969 495.125 C 617.285156 494.421875 616.652344 493.722656 616 493 C 615.339844 493 614.679688 493 614 493 Z M 697 496 C 695.214844 498.1875 693.472656 500.390625 691.75 502.625 C 681.636719 515.679688 681.636719 515.679688 677.25 519.375 C 676.574219 519.953125 675.898438 520.527344 675.203125 521.121094 C 674.476562 521.742188 673.75 522.359375 673 523 C 671.328125 524.476562 669.664062 525.953125 668 527.4375 C 666.855469 528.457031 666.855469 528.457031 665.6875 529.496094 C 665.128906 529.992188 664.574219 530.488281 664 531 C 664.640625 535.117188 666.871094 538.304688 669.0625 541.75 C 669.441406 542.351562 669.816406 542.953125 670.203125 543.574219 C 671.132812 545.050781 672.066406 546.527344 673 548 C 683.539062 546.765625 693.515625 542.707031 701 535 C 706.109375 527.917969 708.960938 521.792969 708 513 C 706.210938 506.277344 703.113281 500.75 698 496 C 697.671875 496 697.339844 496 697 496 Z M 213 504 C 206.117188 511.757812 201.578125 521.777344 197 531 C 196.597656 531.804688 196.199219 532.609375 195.785156 533.4375 C 185.640625 554.039062 175.300781 577.722656 175 601 C 174.984375 602.011719 174.96875 603.027344 174.953125 604.070312 C 175.453125 616.582031 180.960938 626.617188 190 635 C 205.570312 649 229.773438 652.136719 250 652 C 250.375 636.429688 250.65625 620.863281 250.828125 605.292969 C 250.910156 598.0625 251.023438 590.832031 251.207031 583.601562 C 251.367188 577.296875 251.46875 570.992188 251.503906 564.683594 C 251.527344 561.34375 251.582031 558.015625 251.691406 554.675781 C 252.648438 541.171875 252.648438 541.171875 248.476562 528.757812 C 244.835938 525.023438 240.710938 522.527344 236.097656 520.164062 C 232.527344 518.183594 229.457031 515.582031 226.3125 513 C 225.207031 512.125 224.097656 511.25 222.988281 510.375 C 221.050781 508.835938 219.128906 507.273438 217.230469 505.6875 C 215.199219 503.800781 215.199219 503.800781 213 504 Z M 642 524 C 640.394531 527.507812 639.78125 530.144531 640 534 C 644.058594 531.960938 644.058594 531.960938 646 528 C 644.679688 526.679688 643.359375 525.359375 642 524 Z M 648.3125 544.1875 C 645.546875 546.726562 642.886719 548.765625 639.625 550.625 C 636.824219 552.277344 636.089844 552.832031 634.5 555.8125 C 634.335938 556.535156 634.171875 557.257812 634 558 C 639.902344 557.605469 645.6875 556.789062 651.5 555.6875 C 652.6875 555.464844 653.871094 555.242188 655.09375 555.011719 C 658.042969 554.257812 658.042969 554.257812 659.554688 552.191406 C 660.175781 549.125 659.246094 547.875 657.625 545.25 C 657.144531 544.449219 656.660156 543.652344 656.164062 542.828125 C 655.78125 542.226562 655.394531 541.621094 655 541 C 651.320312 541 650.902344 541.722656 648.3125 544.1875 Z M 660.484375 565.023438 C 659.570312 565.238281 658.652344 565.453125 657.710938 565.675781 C 656.734375 565.90625 655.757812 566.136719 654.75 566.375 C 647.03125 568.183594 639.476562 569.664062 631.582031 570.445312 C 628.59375 571.085938 627.941406 571.710938 626 574 C 624.804688 576.101562 624.804688 576.101562 623.765625 578.464844 C 623.359375 579.34375 622.953125 580.21875 622.535156 581.125 C 622.109375 582.050781 621.6875 582.980469 621.25 583.9375 C 617.890625 591.1875 614.402344 598.089844 610.082031 604.820312 C 608.636719 607.085938 608.636719 607.085938 610 610 C 612.421875 611.15625 614.730469 612.109375 617.25 613 C 618.332031 613.390625 618.332031 613.390625 619.4375 613.792969 C 631.851562 618.171875 648.167969 623.296875 661 618 C 666.695312 614.1875 670.273438 610.742188 672 604 C 674.300781 590.054688 671.515625 577.195312 667 564 C 664.675781 564 662.746094 564.480469 660.484375 565.023438 Z M 603.9375 574.875 C 598.351562 578.253906 592.660156 581.351562 586.875 584.375 C 586.03125 584.816406 585.191406 585.257812 584.324219 585.710938 C 578.597656 588.699219 578.597656 588.699219 576 590 C 577.578125 594.738281 581.59375 595.976562 585.8125 598.3125 C 587.042969 599.03125 587.042969 599.03125 588.296875 599.765625 C 589.09375 600.210938 589.886719 600.65625 590.707031 601.113281 C 591.796875 601.730469 591.796875 601.730469 592.910156 602.355469 C 595.003906 603.214844 595.003906 603.214844 597.117188 602.355469 C 599.269531 600.804688 600.175781 599.507812 601.4375 597.183594 C 601.859375 596.417969 602.277344 595.652344 602.710938 594.867188 C 603.136719 594.0625 603.5625 593.261719 604 592.4375 C 604.425781 591.664062 604.851562 590.890625 605.289062 590.09375 C 610.558594 581.464844 610.558594 581.464844 613 572 C 608.597656 572 607.558594 572.613281 603.9375 574.875 Z M 557.8125 575 C 556.910156 575.1875 556.011719 575.371094 555.082031 575.5625 C 554.394531 575.707031 553.707031 575.851562 553 576 C 553.328125 576.660156 553.660156 577.320312 554 578 C 556.125 578.464844 556.125 578.464844 558.5625 578.625 C 559.390625 578.699219 560.214844 578.773438 561.066406 578.851562 C 561.703125 578.902344 562.34375 578.949219 563 579 C 563.988281 577.351562 564.980469 575.699219 566 574 C 563.085938 574 560.660156 574.410156 557.8125 575 Z M 367.230469 746.894531 C 365.925781 749.128906 365.269531 751.015625 364.683594 753.527344 C 364.476562 754.394531 364.273438 755.265625 364.058594 756.160156 C 363.855469 757.074219 363.648438 757.992188 363.4375 758.9375 C 363.222656 759.878906 363.003906 760.820312 362.78125 761.792969 C 357.4375 785.488281 357.4375 785.488281 364.320312 808.242188 C 368.292969 813.296875 373.378906 815.886719 379.4375 817.75 C 386.40625 818.429688 392.925781 817.929688 399.75 816.4375 C 400.5625 816.261719 401.375 816.085938 402.210938 815.902344 C 423.566406 811.039062 444.46875 802.714844 463 791 C 461.613281 787.824219 460.03125 785.851562 457.472656 783.53125 C 456.769531 782.882812 456.0625 782.234375 455.339844 781.570312 C 454.210938 780.542969 454.210938 780.542969 453.0625 779.5 C 445.980469 772.953125 439.394531 766.214844 433 759 C 432.0625 757.972656 431.121094 756.945312 430.179688 755.921875 C 429.71875 755.421875 429.257812 754.917969 428.785156 754.402344 C 428.339844 753.917969 427.894531 753.4375 427.4375 752.9375 C 425.054688 750.339844 422.957031 747.9375 421 745 C 418.722656 744.535156 418.722656 744.535156 416.046875 744.597656 C 415.015625 744.582031 413.984375 744.570312 412.921875 744.558594 C 411.246094 744.5625 411.246094 744.5625 409.535156 744.566406 C 408.390625 744.5625 407.246094 744.554688 406.066406 744.550781 C 403.644531 744.542969 401.21875 744.546875 398.796875 744.554688 C 395.082031 744.5625 391.367188 744.535156 387.648438 744.5 C 385.300781 744.5 382.949219 744.5 380.597656 744.503906 C 379.480469 744.492188 378.367188 744.480469 377.21875 744.46875 C 376.183594 744.480469 375.148438 744.488281 374.082031 744.5 C 373.171875 744.5 372.261719 744.5 371.320312 744.5 C 368.847656 744.800781 368.847656 744.800781 367.230469 746.894531 Z M 439 747 C 445.046875 753.871094 451.320312 760.476562 457.804688 766.933594 C 459.265625 768.390625 460.722656 769.851562 462.179688 771.316406 C 463.125 772.261719 464.070312 773.203125 465.015625 774.148438 C 465.855469 774.984375 466.691406 775.824219 467.554688 776.683594 C 471.789062 781.300781 471.789062 781.300781 477.410156 782.972656 C 480.632812 781.761719 483.445312 780.214844 486.410156 778.464844 C 487.324219 777.929688 487.324219 777.929688 488.253906 777.382812 C 489.539062 776.625 490.824219 775.863281 492.109375 775.101562 C 494.027344 773.957031 495.953125 772.828125 497.882812 771.695312 C 508.3125 765.554688 518.5625 759.152344 528.0625 751.625 C 530.992188 749.328125 533.898438 747.066406 537 745 C 524.519531 744.953125 512.035156 744.917969 499.554688 744.894531 C 493.757812 744.886719 487.960938 744.871094 482.167969 744.847656 C 476.578125 744.828125 470.988281 744.816406 465.398438 744.808594 C 463.261719 744.804688 461.125 744.800781 458.992188 744.789062 C 456.007812 744.773438 453.023438 744.773438 450.039062 744.773438 C 448.703125 744.761719 448.703125 744.761719 447.339844 744.75 C 442.691406 744.542969 442.691406 744.542969 439 747 Z M 542.113281 757.226562 C 538.722656 760.070312 535.066406 762.503906 531.375 764.9375 C 530.570312 765.476562 529.769531 766.011719 528.941406 766.566406 C 521.339844 771.496094 513.566406 776.140625 505.765625 780.75 C 499.71875 784.328125 493.796875 788.027344 488 792 C 509.640625 815.675781 552.757812 835.949219 584.820312 837.515625 C 599.695312 837.820312 612.347656 833.089844 623.292969 822.855469 C 639.738281 805.785156 647.441406 782.234375 652.875 759.6875 C 653.199219 758.355469 653.199219 758.355469 653.527344 756.992188 C 654.484375 752.867188 655.039062 749.246094 655 745 C 642.8125 744.671875 630.625 744.425781 618.433594 744.273438 C 612.769531 744.203125 607.109375 744.105469 601.449219 743.945312 C 595.96875 743.789062 590.492188 743.707031 585.011719 743.671875 C 582.9375 743.644531 580.863281 743.597656 578.789062 743.519531 C 562.855469 742.957031 554.074219 746.757812 542.113281 757.226562 Z M 542.113281 757.226562 "/>
<path style=" stroke:none;fill-rule:nonzero;fill:rgb(0%,0%,0%);fill-opacity:1;" d="M 494.996094 298.601562 C 496.144531 298.597656 497.292969 298.597656 498.472656 298.59375 C 500.894531 298.589844 503.3125 298.597656 505.734375 298.609375 C 509.421875 298.625 513.109375 298.609375 516.800781 298.589844 C 519.15625 298.59375 521.515625 298.59375 523.871094 298.601562 C 524.96875 298.59375 526.0625 298.589844 527.191406 298.582031 C 534.285156 298.648438 540.339844 299.210938 546.171875 303.65625 C 553.304688 311.988281 555.386719 319.394531 554.753906 330.203125 C 554.707031 331.148438 554.65625 332.09375 554.605469 333.066406 C 553.820312 347.273438 552.695312 361.464844 551.605469 375.652344 C 551.285156 379.882812 550.964844 384.109375 550.644531 388.339844 C 550.105469 395.457031 549.5625 402.574219 549.015625 409.691406 C 548.464844 416.898438 547.917969 424.101562 547.375 431.308594 C 542.234375 499.246094 542.234375 499.246094 539.984375 525.394531 C 539.824219 527.289062 539.664062 529.183594 539.507812 531.078125 C 539.296875 533.582031 539.078125 536.089844 538.851562 538.59375 C 538.796875 539.300781 538.738281 540.007812 538.679688 540.738281 C 538.355469 544.214844 537.949219 547.054688 536 550 C 526.363281 556.59375 515.398438 557.898438 504 557 C 497.253906 555.730469 490.726562 553.5625 486.410156 547.921875 C 484.515625 544 484.222656 540.410156 483.851562 536.101562 C 483.761719 535.191406 483.675781 534.28125 483.582031 533.34375 C 483.289062 530.253906 483.011719 527.160156 482.734375 524.070312 C 482.523438 521.824219 482.3125 519.578125 482.101562 517.328125 C 481.378906 509.554688 480.6875 501.777344 480 494 C 479.9375 493.28125 479.875 492.566406 479.808594 491.828125 C 477.796875 469.082031 475.84375 446.332031 473.90625 423.582031 C 472.738281 409.855469 471.5625 396.125 470.386719 382.398438 C 469.976562 377.605469 469.570312 372.816406 469.164062 368.027344 C 468.910156 365.066406 468.65625 362.109375 468.40625 359.152344 C 468.234375 357.144531 468.0625 355.140625 467.894531 353.136719 C 467.347656 346.746094 466.722656 340.375 466 334 C 465.246094 321.933594 466.253906 312.890625 474.144531 303.472656 C 480.542969 298.394531 487.160156 298.558594 494.996094 298.601562 Z M 494.996094 298.601562 "/>
<path style=" stroke:none;fill-rule:nonzero;fill:rgb(0%,0%,0%);fill-opacity:1;" d="M 451 347 C 452.941406 348.941406 452.398438 352.472656 452.5625 355.0625 C 452.644531 356.351562 452.730469 357.644531 452.816406 358.972656 C 452.878906 359.972656 452.9375 360.96875 453 362 C 448.609375 361.402344 444.816406 360.285156 440.6875 358.6875 C 435.199219 356.679688 429.753906 355.074219 424.0625 353.75 C 423.367188 353.585938 422.667969 353.425781 421.949219 353.257812 C 406.847656 349.851562 388.65625 347.828125 374.96875 356.25 C 367.753906 361.628906 364.566406 370.394531 363 379 C 362.691406 382.046875 362.621094 385.0625 362.625 388.125 C 362.625 388.945312 362.621094 389.765625 362.621094 390.609375 C 362.75 398.214844 364.382812 404.84375 367 412 C 371.304688 411.0625 375.59375 410.101562 379.867188 409.035156 C 386.859375 407.316406 393.703125 405.960938 400.890625 405.320312 C 402.085938 405.210938 403.28125 405.105469 404.511719 404.992188 C 406.875 404.792969 409.242188 404.621094 411.609375 404.480469 C 419.640625 403.804688 423.566406 401.875 429 396 C 430.167969 394.898438 431.34375 393.804688 432.527344 392.71875 C 433.664062 391.644531 434.800781 390.574219 435.9375 389.5 C 450.371094 376 450.371094 376 454 376 C 454.40625 377.984375 454.71875 379.992188 455 382 C 455.160156 382.664062 455.320312 383.332031 455.488281 384.015625 C 455.898438 386.765625 455.878906 388.332031 455 391 C 452.113281 394.226562 449.058594 396.96875 445.722656 399.714844 C 442.980469 401.710938 442.980469 401.710938 442 404 C 442.746094 403.953125 443.496094 403.90625 444.265625 403.859375 C 445.25 403.824219 446.234375 403.789062 447.25 403.75 C 448.222656 403.703125 449.199219 403.65625 450.203125 403.609375 C 453 404 453 404 455.332031 405.492188 C 457.683594 409.027344 457.554688 412.273438 457.4375 416.375 C 457.425781 417.167969 457.417969 417.957031 457.40625 418.773438 C 457.207031 426.089844 455.910156 432.929688 454 440 C 455.320312 439.339844 456.640625 438.679688 458 438 C 459.046875 447.957031 459.046875 447.957031 456.933594 452.085938 C 455.074219 454.222656 453.101562 456.097656 451 458 C 440.238281 467.820312 440.238281 467.820312 432.5625 480.0625 C 432.273438 480.679688 431.984375 481.300781 431.6875 481.9375 C 430.136719 485.640625 429.488281 488.226562 431 492 C 432.894531 494.238281 432.894531 494.238281 435.375 496.25 C 436.28125 497.027344 437.183594 497.804688 438.117188 498.605469 C 439.542969 499.789062 439.542969 499.789062 441 501 C 442.363281 502.140625 442.363281 502.140625 443.757812 503.300781 C 446.488281 505.554688 449.242188 507.78125 452 510 C 452.90625 510.738281 453.808594 511.476562 454.742188 512.238281 C 455.609375 512.945312 456.480469 513.648438 457.375 514.375 C 458.53125 515.316406 458.53125 515.316406 459.710938 516.273438 C 461.972656 518.105469 461.972656 518.105469 464.769531 519.277344 C 467 521 467 521 467.488281 524.355469 C 467.429688 525.621094 467.371094 526.882812 467.3125 528.1875 C 467.265625 529.460938 467.222656 530.730469 467.175781 532.042969 C 467.089844 533.507812 467.089844 533.507812 467 535 C 463.484375 533.703125 460.527344 532.175781 457.4375 530.0625 C 456.695312 529.558594 455.949219 529.054688 455.183594 528.535156 C 453.757812 527.53125 452.351562 526.5 450.972656 525.433594 C 449.089844 523.964844 449.089844 523.964844 447.109375 523.132812 C 444.707031 521.84375 443.175781 520.371094 441.285156 518.410156 C 440.597656 517.707031 439.914062 517.007812 439.203125 516.28125 C 437.78125 514.808594 436.355469 513.332031 434.929688 511.851562 C 431.507812 508.355469 428.4375 505.214844 424 503 C 423.875 503.839844 423.746094 504.679688 423.617188 505.546875 C 422.96875 509.179688 422.058594 512.679688 421.125 516.25 C 418.203125 527.96875 417.199219 540.007812 416 552 C 417.152344 552.128906 418.300781 552.257812 419.488281 552.390625 C 423.019531 552.832031 426.460938 553.488281 429.9375 554.253906 C 437.660156 555.953125 445.363281 557.214844 453.21875 558.128906 C 454.035156 558.226562 454.847656 558.324219 455.6875 558.425781 C 460.664062 559.023438 460.664062 559.023438 465.648438 559.5625 C 475.445312 560.5625 482.917969 561.417969 490 569 C 487.808594 571.261719 485.835938 573.109375 483.199219 574.863281 C 479.453125 577.367188 476.179688 580.203125 472.8125 583.1875 C 468.339844 587.117188 463.84375 590.972656 459.1875 594.6875 C 449.070312 602.585938 449.070312 602.585938 442 613 C 442.902344 612.785156 443.808594 612.566406 444.738281 612.34375 C 446.507812 611.925781 446.507812 611.925781 448.3125 611.5 C 450.070312 611.082031 450.070312 611.082031 451.863281 610.65625 C 455 610 455 610 458 610 C 458.027344 611.4375 458.046875 612.875 458.0625 614.3125 C 458.074219 615.113281 458.085938 615.914062 458.097656 616.738281 C 458 619 458 619 457 622 C 457.496094 622.597656 457.988281 623.195312 458.5 623.8125 C 460 626 460 626 459.6875 629.25 C 459.460938 630.15625 459.234375 631.066406 459 632 C 455.078125 631.589844 451.867188 631.019531 448.25 629.4375 C 443.203125 627.445312 438.347656 627.660156 433 628 C 432.164062 627.992188 431.328125 627.984375 430.46875 627.980469 C 425.207031 628.113281 421.8125 628.546875 417.917969 632.246094 C 416.652344 633.621094 415.410156 635.019531 414.1875 636.4375 C 412.8125 637.914062 411.433594 639.382812 410.042969 640.84375 C 409.363281 641.558594 408.683594 642.273438 407.984375 643.011719 C 403.226562 647.777344 397.695312 651.449219 392 655 C 391.050781 655.597656 391.050781 655.597656 390.078125 656.207031 C 375.546875 665.183594 361.339844 670.890625 344 669 C 337.257812 667.371094 332.863281 662.570312 329 657 C 320.679688 641.871094 323.097656 623.417969 327.320312 607.320312 C 328.453125 603.453125 329.882812 599.703125 331.3125 595.9375 C 333.761719 589.433594 334.527344 584.785156 333 578 C 330.496094 562.433594 331.3125 549.429688 334 534 C 333.4375 533.746094 332.878906 533.492188 332.300781 533.230469 C 320.84375 527.105469 310.070312 516.292969 305.960938 503.855469 C 301.925781 487.957031 304.566406 473.539062 312 459 C 322.535156 442.113281 338.765625 430.921875 355 420 C 354.816406 419.429688 354.636719 418.859375 354.449219 418.269531 C 353.597656 415.523438 352.792969 412.765625 352 410 C 351.714844 409.023438 351.425781 408.046875 351.132812 407.039062 C 346.675781 390.183594 347.738281 371.96875 356.3125 356.65625 C 362.3125 346.871094 371.765625 341.253906 382.597656 337.878906 C 404.925781 332.628906 430.054688 339.410156 451 347 Z M 419 423 C 418.390625 423.597656 417.78125 424.191406 417.15625 424.808594 C 415.40625 426.582031 413.730469 428.398438 412.0625 430.25 C 411.46875 430.898438 410.875 431.546875 410.265625 432.210938 C 409.070312 433.519531 407.878906 434.824219 406.6875 436.136719 C 405.128906 437.859375 403.558594 439.570312 401.984375 441.277344 C 396.761719 446.945312 396.761719 446.945312 392 453 C 394.265625 458.085938 398.097656 461.675781 401.875 465.6875 C 402.59375 466.472656 403.316406 467.257812 404.058594 468.0625 C 404.757812 468.808594 405.457031 469.554688 406.179688 470.324219 C 406.816406 471.003906 407.453125 471.6875 408.109375 472.390625 C 410.140625 474.117188 411.363281 474.714844 414 475 C 424.058594 470.042969 428.277344 458.40625 432.96875 448.976562 C 435.714844 443.46875 438.71875 438.179688 441.9375 432.9375 C 442.375 432.21875 442.808594 431.5 443.257812 430.761719 C 445.265625 427.523438 447.332031 424.519531 449.816406 421.628906 C 452.214844 419.3125 452.214844 419.3125 452 417 C 448.191406 416.625 444.378906 416.335938 440.5625 416.0625 C 439.492188 415.957031 438.425781 415.851562 437.320312 415.742188 C 428.941406 415.203125 424.863281 417.089844 419 423 Z M 389.9375 419.8125 C 388.773438 420.0625 388.773438 420.0625 387.585938 420.3125 C 383.066406 421.328125 378.894531 422.394531 375 425 C 373.675781 427.273438 373.675781 427.273438 374 430 C 375.507812 433.214844 375.507812 433.214844 377.75 436.3125 C 378.464844 437.382812 379.183594 438.449219 379.921875 439.550781 C 380.609375 440.359375 381.292969 441.167969 382 442 C 385.109375 442.324219 385.109375 442.324219 387.234375 440.09375 C 397.417969 429.695312 397.417969 429.695312 406 418 C 400.378906 417.78125 395.40625 418.558594 389.9375 419.8125 Z M 352.5 437.4375 C 351.871094 437.890625 351.242188 438.34375 350.59375 438.808594 C 345.050781 442.855469 339.976562 447.273438 335 452 C 334.304688 452.585938 333.609375 453.171875 332.890625 453.777344 C 323.816406 461.8125 317.96875 474.855469 316.699219 486.835938 C 316.648438 497.875 319.269531 505.957031 327 514 C 329.828125 516.589844 332.636719 519.136719 336 521 C 339.105469 520.347656 339.105469 520.347656 340.050781 518.03125 C 340.371094 517.171875 340.691406 516.3125 341.023438 515.425781 C 341.398438 514.460938 341.773438 513.492188 342.15625 512.496094 C 342.558594 511.445312 342.960938 510.394531 343.375 509.3125 C 350.039062 492.640625 359.113281 477.566406 369.574219 463.007812 C 373.113281 458.363281 373.113281 458.363281 375 453 C 373.824219 450.234375 372.140625 447.917969 370.375 445.5 C 369.695312 444.523438 369.695312 444.523438 369.003906 443.527344 C 366.472656 439.917969 363.914062 436.308594 361 433 C 357.609375 433 355.164062 435.511719 352.5 437.4375 Z M 384 464 C 368.769531 482.917969 355.335938 505.441406 349 529 C 350.742188 529.867188 352.496094 530.71875 354.25 531.5625 C 355.710938 532.277344 355.710938 532.277344 357.203125 533.003906 C 360.25 534.089844 361.0625 534.101562 364 533 C 365.550781 531.6875 365.550781 531.6875 366.867188 529.972656 C 367.382812 529.339844 367.894531 528.707031 368.425781 528.054688 C 371.085938 524.582031 373.609375 521.019531 376.125 517.4375 C 381.582031 509.765625 387.441406 502.621094 393.652344 495.558594 C 396.894531 491.808594 399.945312 487.898438 403 484 C 401.625 482.457031 401.625 482.457031 400 481 C 399.339844 481 398.679688 481 398 481 C 397.785156 480.480469 397.570312 479.957031 397.347656 479.421875 C 395.449219 476.011719 392.972656 473.207031 390.4375 470.25 C 389.929688 469.648438 389.421875 469.046875 388.898438 468.425781 C 387.625 466.929688 386.316406 465.460938 385 464 C 384.671875 464 384.339844 464 384 464 Z M 411 493 C 405.414062 498.46875 400.003906 503.992188 395 510 C 394.558594 510.527344 394.113281 511.058594 393.660156 511.601562 C 381.523438 524.578125 381.523438 524.578125 375 540 C 378.539062 541.152344 382.082031 542.296875 385.625 543.4375 C 386.625 543.761719 387.625 544.089844 388.652344 544.421875 C 395.703125 546.746094 395.703125 546.746094 403 548 C 404.824219 546.175781 404.316406 543.570312 404.492188 541.121094 C 405.707031 525.085938 409.433594 509.394531 414 494 C 413.011719 493.671875 412.019531 493.339844 411 493 Z M 345 542 C 343.429688 548.585938 342.152344 555.214844 343 562 C 343.660156 562.988281 344.320312 563.980469 345 565 C 348.628906 558.730469 352.261719 552.460938 356 546 C 353.6875 543.6875 352.519531 543.503906 349.375 542.875 C 348.148438 542.625 348.148438 542.625 346.898438 542.367188 C 346.273438 542.246094 345.644531 542.125 345 542 Z M 365.792969 552.847656 C 361.976562 556.746094 359.761719 561.617188 357.3125 566.4375 C 356.828125 567.367188 356.34375 568.296875 355.84375 569.25 C 350.421875 579.164062 350.421875 579.164062 351 590 C 361.308594 605.515625 378.28125 609.949219 395.355469 613.746094 C 408.132812 616.3125 408.132812 616.3125 420 613 C 419.417969 609.601562 417.9375 606.84375 416.320312 603.824219 C 409.234375 590.515625 405.589844 576.96875 404 562 C 396.816406 559.15625 389.472656 556.984375 382.0625 554.8125 C 380.820312 554.445312 379.574219 554.078125 378.296875 553.695312 C 371.691406 550.945312 371.691406 550.945312 365.792969 552.847656 Z M 416 565 C 417.445312 578.160156 421.957031 590.777344 429 602 C 433.371094 601.503906 435.246094 600.21875 438.257812 597.0625 C 439.042969 596.253906 439.828125 595.445312 440.640625 594.609375 C 441.460938 593.75 442.28125 592.886719 443.125 592 C 449.246094 585.707031 455.292969 579.75 462.261719 574.398438 C 462.835938 573.9375 463.410156 573.476562 464 573 C 464 572.671875 464 572.339844 464 572 C 463.023438 571.859375 462.042969 571.71875 461.039062 571.574219 C 457.367188 571.042969 453.695312 570.507812 450.023438 569.972656 C 448.441406 569.742188 446.863281 569.515625 445.28125 569.289062 C 429.203125 566.96875 429.203125 566.96875 421.957031 565.34375 C 419.675781 564.882812 419.675781 564.882812 416 565 Z M 343 602 C 335.457031 613.503906 334.300781 630.640625 336.6875 643.9375 C 337.957031 648.832031 340.453125 652.417969 344.824219 655.132812 C 352.699219 658.273438 361.210938 655.769531 368.644531 652.609375 C 382.039062 646.183594 393.992188 638.007812 405 628 C 405 627.671875 405 627.339844 405 627 C 403.933594 626.851562 402.867188 626.707031 401.765625 626.554688 C 381.863281 623.632812 362.898438 619.203125 348.09375 604.855469 C 346.046875 602.796875 346.046875 602.796875 343 602 Z M 343 602 "/>
<path style=" stroke:none;fill-rule:nonzero;fill:rgb(0%,0%,0%);fill-opacity:1;" d="M 538 594 C 545.285156 599.464844 551.554688 609.886719 553 619 C 553.8125 632.289062 552.148438 643.128906 544 654 C 536.070312 662.671875 526.007812 668.15625 514.292969 669.253906 C 502.117188 669.75 491.125 666.148438 482 658 C 472.03125 647.511719 469.492188 636.628906 469.722656 622.5625 C 470.179688 611.503906 475.75 601.78125 483.6875 594.25 C 499.867188 580.871094 521.5 582.292969 538 594 Z M 538 594 "/>
</g>
</svg>
